<svg width="331" height="331" viewBox="0 0 331 331" fill="none" xmlns="http://www.w3.org/2000/svg">
<path d="M192.741 178.806H233.289L165.5 111.646L97.7113 178.806H138.259V233.289H192.741V178.806ZM264.966 138.887C282.277 140.145 297.073 147.229 309.32 160.105C321.567 172.98 327.69 188.306 327.69 206.047C327.69 224.616 321.037 240.571 307.731 253.877C294.425 267.183 278.47 273.836 259.901 273.836H84.4051C62.0295 273.836 42.8977 265.925 27.0759 250.07C11.2541 234.215 3.31006 215.117 3.31006 192.741C3.31006 172.054 10.2942 153.981 24.2293 138.556C38.1644 123.132 55.2771 114.36 75.5343 112.275C84.4051 95.7913 96.8507 82.4851 112.904 72.3565C128.958 62.2279 146.468 57.1636 165.5 57.1636C189.994 57.1636 211.542 64.8759 230.111 80.3005C248.68 95.7251 260.332 115.254 264.966 138.887Z" fill="white"/>
</svg>